<svg xmlns="http://www.w3.org/2000/svg" width="256" height="256" viewBox="0 0 100 100"><rect width="100" height="100" rx="50" fill="#eb5d1e"></rect><path d="M33.63 47.81L47.40 67.86L40.64 67.86L29.43 51.70L25.99 54.50L25.99 67.86L20.15 67.86L20.15 32.17L25.99 32.17L25.99 49.21Q28.38 46.28 30.75 43.57L30.75 43.57L40.39 32.17L47.03 32.17Q37.68 43.15 33.63 47.81L33.63 47.81ZM66.71 53.50L66.71 48.50L79.85 48.50L79.85 66.42Q76.62 67.47 73.66 67.91Q70.69 68.35 67.25 68.35L67.25 68.35Q59.14 68.35 54.75 63.55Q50.35 58.75 50.35 50.01L50.35 50.01Q50.35 41.39 55.31 36.52Q60.27 31.65 68.96 31.65L68.96 31.65Q74.55 31.65 79.55 33.80L79.55 33.80L77.50 38.66Q73.16 36.66 68.81 36.66L68.81 36.66Q63.10 36.66 59.78 40.25Q56.46 43.84 56.46 50.06L56.46 50.06Q56.46 56.60 59.45 60.01Q62.44 63.42 68.05 63.42L68.05 63.42Q70.89 63.42 74.11 62.71L74.11 62.71L74.11 53.50L66.71 53.50Z" fill="#fff"></path></svg>